<svg version="1.1" xmlns="http://www.w3.org/2000/svg" viewBox="0 0 403.94921875 433.0703125" width="807.8984375" height="866.140625">
  <!-- svg-source:excalidraw -->
  
  <defs>
    <style class="style-fonts">
      @font-face {
        font-family: "Virgil";
        src: url("https://excalidraw.com/Virgil.woff2");
      }
      @font-face {
        font-family: "Cascadia";
        src: url("https://excalidraw.com/Cascadia.woff2");
      }
      @font-face {
        font-family: "Assistant";
        src: url("https://excalidraw.com/Assistant-Regular.woff2");
      }
    </style>
    
  </defs>
  <rect x="0" y="0" width="403.94921875" height="433.0703125" fill="#ffffff"></rect><g stroke-linecap="round" transform="translate(10 10) rotate(0 191.974609375 206.53515625)"><path d="M32 0 C103.12 1.1, 177.76 0.84, 351.95 0 C375.87 2.51, 381.9 12.04, 383.95 32 C383.85 122.13, 385.07 216.13, 383.95 381.07 C386.15 399.07, 376.44 411.65, 351.95 413.07 C246.07 413.73, 139.16 411.64, 32 413.07 C9.26 410.72, -2.58 402.54, 0 381.07 C0.34 246.74, -1.22 109.73, 0 32 C2.29 11.46, 9.46 0.26, 32 0" stroke="none" stroke-width="0" fill="#ffffff"></path><path d="M32 0 C121.07 2.17, 210.69 2.13, 351.95 0 M32 0 C104.13 1.67, 178.21 1.63, 351.95 0 M351.95 0 C373.12 1.48, 383.28 12.33, 383.95 32 M351.95 0 C373.6 0.51, 383.82 9.32, 383.95 32 M383.95 32 C385.6 101.91, 384.12 173.61, 383.95 381.07 M383.95 32 C386.34 158.87, 386.23 286.62, 383.95 381.07 M383.95 381.07 C382.96 402.15, 374.93 412.87, 351.95 413.07 M383.95 381.07 C384.32 404.59, 372.4 413.92, 351.95 413.07 M351.95 413.07 C281.57 412.47, 210.7 411, 32 413.07 M351.95 413.07 C260.6 414.9, 169.38 413.78, 32 413.07 M32 413.07 C11.04 412.62, 1.62 403.97, 0 381.07 M32 413.07 C12.3 414.64, 2.28 403.9, 0 381.07 M0 381.07 C-0.02 265.97, -1.94 151.17, 0 32 M0 381.07 C-1.32 300.76, -0.53 220.37, 0 32 M0 32 C-1.73 11.35, 9.68 -1.26, 32 0 M0 32 C0.44 12.94, 10.34 0.33, 32 0" stroke="#1e1e1e" stroke-width="2" fill="none"></path></g><g stroke-linecap="round" transform="translate(106.67578125 103.03125) rotate(0 101.404296875 124.173828125)"><path d="M32 0 C74.1 -0.27, 109.3 -2.74, 170.81 0 C194.32 1.62, 204.78 9.19, 202.81 32 C201.1 97.09, 200.09 168.13, 202.81 216.35 C200.58 241.1, 194.67 246.87, 170.81 248.35 C146.1 246.8, 117.24 246.27, 32 248.35 C7.67 246.58, 0.27 236.42, 0 216.35 C-1.67 171.57, 0.3 131.88, 0 32 C-2.91 8.69, 10.3 2.76, 32 0" stroke="none" stroke-width="0" fill="#ffffff"></path><path d="M32 0 C78.6 -0.59, 127.49 1.45, 170.81 0 M32 0 C73.77 -0.19, 113.19 0.53, 170.81 0 M170.81 0 C191.15 -1.26, 203.2 12.64, 202.81 32 M170.81 0 C191.82 0.33, 201.11 8.77, 202.81 32 M202.81 32 C202.79 88.85, 203.36 145.51, 202.81 216.35 M202.81 32 C203.74 77.78, 203.08 121.29, 202.81 216.35 M202.81 216.35 C202.98 239.68, 193.36 246.5, 170.81 248.35 M202.81 216.35 C204.83 236.78, 192.86 247.4, 170.81 248.35 M170.81 248.35 C130.98 248.57, 91.82 247.81, 32 248.35 M170.81 248.35 C138.93 248.8, 107.25 250.06, 32 248.35 M32 248.35 C8.92 248.02, 1.27 238.12, 0 216.35 M32 248.35 C9.89 248.51, -0.37 237.71, 0 216.35 M0 216.35 C0.8 162.24, 0.15 111.95, 0 32 M0 216.35 C0.25 157.7, 0.3 98.29, 0 32 M0 32 C-0.6 9.24, 10.11 -1.68, 32 0 M0 32 C-0.25 8.95, 12 -0.47, 32 0" stroke="#1e1e1e" stroke-width="2" fill="none"></path></g><g transform="translate(81.73828125 56.3515625) rotate(0 63.43993377685547 12.5)"><text x="0" y="17.52" font-family="Virgil, Segoe UI Emoji" font-size="20px" fill="#1e1e1e" text-anchor="start" style="white-space: pre;" direction="ltr" dominant-baseline="alphabetic">updateQueue</text></g><g transform="translate(145.921875 141.00390625) rotate(0 67.86993408203125 12.5)"><text x="0" y="17.52" font-family="Virgil, Segoe UI Emoji" font-size="20px" fill="#1e1e1e" text-anchor="start" style="white-space: pre;" direction="ltr" dominant-baseline="alphabetic">shared.pending</text></g><g stroke-linecap="round" transform="translate(148.71875 197.6953125) rotate(0 60.541015625 21.615234375)"><path d="M10.81 0 C37.71 -2.01, 60.87 -1.36, 110.27 0 C115.99 -0.47, 118.91 1.2, 121.08 10.81 C121.77 16.8, 119 24.41, 121.08 32.42 C122.78 40.87, 114.2 44.08, 110.27 43.23 C79.95 43.44, 50.06 42.43, 10.81 43.23 C2.99 44.31, 0.47 38.17, 0 32.42 C-2.55 28.3, 2.03 18.92, 0 10.81 C-2.07 5.96, 2.38 -0.33, 10.81 0" stroke="none" stroke-width="0" fill="#ffffff"></path><path d="M10.81 0 C52.05 -1.05, 88.05 -0.16, 110.27 0 M10.81 0 C38.98 -0.21, 68.76 -0.35, 110.27 0 M110.27 0 C118.46 0.8, 122.48 2.98, 121.08 10.81 M110.27 0 C116.8 1.41, 122.15 5.59, 121.08 10.81 M121.08 10.81 C120.15 19.56, 122.91 26.75, 121.08 32.42 M121.08 10.81 C120.74 17.53, 120.24 24.7, 121.08 32.42 M121.08 32.42 C119.42 41.4, 116.32 41.49, 110.27 43.23 M121.08 32.42 C119.95 40.03, 118.1 44.69, 110.27 43.23 M110.27 43.23 C74.14 44.42, 36.58 43, 10.81 43.23 M110.27 43.23 C78.95 43.41, 48.81 43.46, 10.81 43.23 M10.81 43.23 C5.09 42.7, -1.53 39.45, 0 32.42 M10.81 43.23 C3.64 43.75, 0.82 40.13, 0 32.42 M0 32.42 C1.7 25.26, 0.49 17.13, 0 10.81 M0 32.42 C-0.32 26.93, -0.3 23.02, 0 10.81 M0 10.81 C-1.65 5.31, 3.5 -1.43, 10.81 0 M0 10.81 C-0.6 3.71, 3.03 1.28, 10.81 0" stroke="#1e1e1e" stroke-width="2" fill="none"></path></g><g transform="translate(175.1697998046875 206.810546875) rotate(0 34.0899658203125 12.5)"><text x="34.0899658203125" y="17.52" font-family="Virgil, Segoe UI Emoji" font-size="20px" fill="#1e1e1e" text-anchor="middle" style="white-space: pre;" direction="ltr" dominant-baseline="alphabetic">update</text></g><g stroke-linecap="round" transform="translate(152.537109375 254.716796875) rotate(0 60.541015625 21.615234375)"><path d="M10.81 0 C37.51 -4.6, 63.57 -2.72, 110.27 0 C120.81 -2.36, 121.52 4.58, 121.08 10.81 C119.97 17, 119.01 25, 121.08 32.42 C119.23 39.63, 114.52 45.36, 110.27 43.23 C78.23 44.93, 51.95 40.26, 10.81 43.23 C4.19 42.98, -0.63 39.77, 0 32.42 C0.09 26.6, -0.55 24.86, 0 10.81 C-2.42 2.07, 5.69 0.14, 10.81 0" stroke="none" stroke-width="0" fill="#ffffff"></path><path d="M10.81 0 C38.67 1.79, 63.61 -0.41, 110.27 0 M10.81 0 C46.61 -0.26, 82.81 -0.27, 110.27 0 M110.27 0 C119.01 -0.96, 121.66 2.81, 121.08 10.81 M110.27 0 C117.29 1.22, 119.07 3.65, 121.08 10.81 M121.08 10.81 C121.7 15.33, 121.69 22.48, 121.08 32.42 M121.08 10.81 C121.6 16, 121.72 22.49, 121.08 32.42 M121.08 32.42 C122.67 38.39, 117.77 44.97, 110.27 43.23 M121.08 32.42 C121.89 40, 117.45 43.7, 110.27 43.23 M110.27 43.23 C77.24 45.29, 44.19 42.47, 10.81 43.23 M110.27 43.23 C89.08 41.86, 68.48 42.53, 10.81 43.23 M10.81 43.23 C4.8 43.53, 1.67 40.29, 0 32.42 M10.81 43.23 C4.76 42.21, 1.87 41.84, 0 32.42 M0 32.42 C-0.71 25.63, 1.98 23.26, 0 10.81 M0 32.42 C0.47 28.7, -0.25 23.5, 0 10.81 M0 10.81 C1.93 2.22, 4.53 1.7, 10.81 0 M0 10.81 C-0.83 5.01, 5.61 -0.24, 10.81 0" stroke="#1e1e1e" stroke-width="2" fill="none"></path></g><g transform="translate(178.9881591796875 263.83203125) rotate(0 34.0899658203125 12.5)"><text x="34.0899658203125" y="17.52" font-family="Virgil, Segoe UI Emoji" font-size="20px" fill="#1e1e1e" text-anchor="middle" style="white-space: pre;" direction="ltr" dominant-baseline="alphabetic">update</text></g></svg>