<svg version="1.1" xmlns="http://www.w3.org/2000/svg" viewBox="0 0 1191.6903407962784 431.4609375" width="2383.380681592557" height="862.921875">
  <!-- svg-source:excalidraw -->
  
  <defs>
    <style class="style-fonts">
      @font-face {
        font-family: "Virgil";
        src: url("https://excalidraw.com/Virgil.woff2");
      }
      @font-face {
        font-family: "Cascadia";
        src: url("https://excalidraw.com/Cascadia.woff2");
      }
      @font-face {
        font-family: "Assistant";
        src: url("https://excalidraw.com/Assistant-Regular.woff2");
      }
    </style>
    
  </defs>
  <rect x="0" y="0" width="1191.6903407962784" height="431.4609375" fill="#ffffff"></rect><g stroke-linecap="round" transform="translate(375.2205379398331 61.24609375) rotate(0 211.953125 180.107421875)"><path d="M32 0 C111.07 -2.48, 189.95 -0.63, 391.91 0 M32 0 C147.51 -1.24, 264.65 -1.06, 391.91 0 M391.91 0 C415.16 -1.21, 425.28 10.76, 423.91 32 M391.91 0 C413.37 -0.87, 425.39 10.36, 423.91 32 M423.91 32 C421.2 127.71, 422.89 220.92, 423.91 328.21 M423.91 32 C423.36 127.12, 423.09 221.57, 423.91 328.21 M423.91 328.21 C422.47 348.63, 412.89 358.87, 391.91 360.21 M423.91 328.21 C424.18 351.01, 413.86 362.35, 391.91 360.21 M391.91 360.21 C289.08 363.1, 186.21 361.39, 32 360.21 M391.91 360.21 C268.36 360.04, 145.09 360.04, 32 360.21 M32 360.21 C10.39 359.6, 1.23 350.41, 0 328.21 M32 360.21 C11.72 360.57, -2.07 350.56, 0 328.21 M0 328.21 C-1.19 238.15, -0.91 148.67, 0 32 M0 328.21 C-1.41 219.33, 0.01 109.21, 0 32 M0 32 C-1.09 11.21, 11.37 1.22, 32 0 M0 32 C-0.19 10.03, 9.68 1.63, 32 0" stroke="#1e1e1e" stroke-width="2" fill="none"></path></g><g stroke-linecap="round" transform="translate(462.4041316898331 163.2265625) rotate(0 113.064453125 28.138671875)"><path d="M14.07 0 C85.78 -3.06, 159.57 -2.64, 212.06 0 M14.07 0 C93.07 1.34, 171.24 0.22, 212.06 0 M212.06 0 C220.73 -1.22, 225.42 4.41, 226.13 14.07 M212.06 0 C220.73 1.42, 227.12 5.74, 226.13 14.07 M226.13 14.07 C225.89 24.56, 226.37 32.61, 226.13 42.21 M226.13 14.07 C226.98 20.96, 226.88 26.26, 226.13 42.21 M226.13 42.21 C226.93 53.56, 219.67 55.18, 212.06 56.28 M226.13 42.21 C226.76 52.4, 222.85 56.09, 212.06 56.28 M212.06 56.28 C157.68 57.35, 105.93 56.08, 14.07 56.28 M212.06 56.28 C134.38 57.93, 59.34 57.06, 14.07 56.28 M14.07 56.28 C3.53 54.83, -1.8 52.31, 0 42.21 M14.07 56.28 C6.09 56.77, -1.9 52.94, 0 42.21 M0 42.21 C-1.69 37.41, -0.88 30.32, 0 14.07 M0 42.21 C-0.63 34.7, 0.63 26.51, 0 14.07 M0 14.07 C1.56 6.13, 4.44 -1.54, 14.07 0 M0 14.07 C1.47 2.52, 5.15 1.31, 14.07 0" stroke="#1e1e1e" stroke-width="2" fill="none"></path></g><g transform="translate(553.76860312538 178.865234375) rotate(0 21.699981689453125 12.5)"><text x="21.699981689453125" y="17.52" font-family="Virgil, Segoe UI Emoji" font-size="20px" fill="#1e1e1e" text-anchor="middle" style="white-space: pre;" direction="ltr" dominant-baseline="alphabetic">span</text></g><g stroke-linecap="round" transform="translate(474.9705379398331 359.2109375) rotate(0 109.154296875 24.923828125)"><path d="M12.46 0 C77.67 3.77, 139.5 0.7, 205.85 0 M12.46 0 C75.68 -1.46, 138.63 -0.48, 205.85 0 M205.85 0 C213.69 -0.33, 220 2.55, 218.31 12.46 M205.85 0 C216.17 0.85, 219.41 1.98, 218.31 12.46 M218.31 12.46 C217.34 20.24, 216.7 31.64, 218.31 37.39 M218.31 12.46 C218.95 20.56, 218.07 29.87, 218.31 37.39 M218.31 37.39 C216.54 46.81, 213.19 49.79, 205.85 49.85 M218.31 37.39 C217.44 47.56, 214.14 48.93, 205.85 49.85 M205.85 49.85 C151.72 49.48, 94.22 46.5, 12.46 49.85 M205.85 49.85 C136.05 50.22, 66.01 50.6, 12.46 49.85 M12.46 49.85 C3.64 50.45, 0.59 45.77, 0 37.39 M12.46 49.85 C6.43 51.52, 0.95 43.61, 0 37.39 M0 37.39 C1.35 33.16, 2 28.43, 0 12.46 M0 37.39 C-0.27 31.51, 0.61 23.29, 0 12.46 M0 12.46 C1.7 4.83, 2.26 -0.28, 12.46 0 M0 12.46 C-1 4.65, 4.34 1.72, 12.46 0" stroke="#1e1e1e" stroke-width="2" fill="none"></path></g><g transform="translate(562.42485312538 371.634765625) rotate(0 21.699981689453125 12.5)"><text x="21.699981689453125" y="17.52" font-family="Virgil, Segoe UI Emoji" font-size="20px" fill="#1e1e1e" text-anchor="middle" style="white-space: pre;" direction="ltr" dominant-baseline="alphabetic">span</text></g><g stroke-linecap="round"><g transform="translate(889.9705379398331 148.32421875) rotate(0 -96.505859375 16.398545423882865)"><path d="M-0.97 0.84 C-33.13 6.56, -160.92 28.06, -192.98 33.37 M0.72 0.23 C-31.59 5.68, -161.41 25.93, -193.91 31.54" stroke="#1e1e1e" stroke-width="2" fill="none"></path></g><g transform="translate(889.9705379398331 148.32421875) rotate(0 -96.505859375 16.398545423882865)"><path d="M-172.1 19.32 C-177.28 22.83, -184.21 25.9, -193.91 31.54 M-172.1 19.32 C-178.69 22.59, -184.33 26.84, -193.91 31.54" stroke="#1e1e1e" stroke-width="2" fill="none"></path></g><g transform="translate(889.9705379398331 148.32421875) rotate(0 -96.505859375 16.398545423882865)"><path d="M-169.34 36.19 C-175.21 34.67, -182.95 32.73, -193.91 31.54 M-169.34 36.19 C-176.67 34.58, -183.11 33.97, -193.91 31.54" stroke="#1e1e1e" stroke-width="2" fill="none"></path></g></g><mask></mask><g stroke-linecap="round"><g transform="translate(939.0838191898331 270.1953125) rotate(0 -120.44158438112066 43.07082366268753)"><path d="M0.42 0.23 C-39.79 14.55, -201.71 71, -241.85 85.2 M-0.82 -0.69 C-40.61 13.81, -199.62 71.73, -239.64 86.25" stroke="#1e1e1e" stroke-width="2" fill="none"></path></g><g transform="translate(939.0838191898331 270.1953125) rotate(0 -120.44158438112066 43.07082366268753)"><path d="M-220.48 70.18 C-224.99 72.67, -231.74 79.08, -239.64 86.25 M-220.48 70.18 C-225.4 74.79, -230.07 77.03, -239.64 86.25" stroke="#1e1e1e" stroke-width="2" fill="none"></path></g><g transform="translate(939.0838191898331 270.1953125) rotate(0 -120.44158438112066 43.07082366268753)"><path d="M-214.64 86.25 C-220.52 84.73, -228.73 87.11, -239.64 86.25 M-214.64 86.25 C-220.99 86.92, -227.09 85.23, -239.64 86.25" stroke="#1e1e1e" stroke-width="2" fill="none"></path></g></g><mask></mask><g stroke-linecap="round"><g transform="translate(976.8963191898331 31.5078125) rotate(0 -94.146484375 18.87109375)"><path d="M0.41 -0.59 C-31.09 5.71, -157.26 31.23, -188.87 37.75 M-0.83 1.72 C-32.56 8.23, -159.12 33.48, -190.12 39.29" stroke="#1e1e1e" stroke-width="2" fill="none"></path></g><g transform="translate(976.8963191898331 31.5078125) rotate(0 -94.146484375 18.87109375)"><path d="M-168.69 26.41 C-176.37 29.56, -182.07 33.01, -190.12 39.29 M-168.69 26.41 C-176.32 31.54, -183.95 35.01, -190.12 39.29" stroke="#1e1e1e" stroke-width="2" fill="none"></path></g><g transform="translate(976.8963191898331 31.5078125) rotate(0 -94.146484375 18.87109375)"><path d="M-165.42 43.2 C-174.11 41.11, -180.84 39.32, -190.12 39.29 M-165.42 43.2 C-174.09 42.18, -182.91 39.53, -190.12 39.29" stroke="#1e1e1e" stroke-width="2" fill="none"></path></g></g><mask></mask><g transform="translate(987.9705379398331 10) rotate(0 58.05995178222656 12.5)"><text x="0" y="17.52" font-family="Virgil, Segoe UI Emoji" font-size="20px" fill="#1e1e1e" text-anchor="start" style="white-space: pre;" direction="ltr" dominant-baseline="alphabetic">parent node</text></g><g transform="translate(903.9705379398331 138) rotate(0 57.50995635986328 12.5)"><text x="0" y="17.52" font-family="Virgil, Segoe UI Emoji" font-size="20px" fill="#1e1e1e" text-anchor="start" style="white-space: pre;" direction="ltr" dominant-baseline="alphabetic">anchor node</text></g><g transform="translate(963.9705379398331 256.69140625) rotate(0 108.85990142822266 12.5)"><text x="0" y="17.52" font-family="Virgil, Segoe UI Emoji" font-size="20px" fill="#1e1e1e" text-anchor="start" style="white-space: pre;" direction="ltr" dominant-baseline="alphabetic">anchor.nextsibling node</text></g><g transform="translate(58.98146291140296 175.86705561722403) rotate(359.2276865920085 123.09270220878855 10.305088141886074)"><text x="0" y="14.443611539667533" font-family="Virgil, Segoe UI Emoji" font-size="16.48814102701773px" fill="#1e1e1e" text-anchor="start" style="white-space: pre;" direction="ltr" dominant-baseline="alphabetic">parent.insertBefore(el, anchor)</text></g><g transform="translate(10.253548702385388 305.11916590901757) rotate(359.2276865920085 160.20558166503906 19.890396140815454)"><text x="0" y="13.939189615483484" font-family="Virgil, Segoe UI Emoji" font-size="15.912316912652377px" fill="#1e1e1e" text-anchor="start" style="white-space: pre;" direction="ltr" dominant-baseline="alphabetic">parent.insertBefore(el, anchor.nextSibling)</text><text x="0" y="33.829585756298954" font-family="Virgil, Segoe UI Emoji" font-size="15.912316912652377px" fill="#1e1e1e" text-anchor="start" style="white-space: pre;" direction="ltr" dominant-baseline="alphabetic">= parent.insertAfter</text></g><g stroke-linecap="round"><g transform="translate(340.1541316898331 320.65234375) rotate(0 62.578125 -10.28515625)"><path d="M-0.48 -0.37 C20.49 -3.88, 105.36 -16.86, 126.14 -20.07 M1.47 -1.61 C22.35 -5.56, 104.86 -18.62, 125.71 -21.92" stroke="#1e1e1e" stroke-width="2" fill="none"></path></g><g transform="translate(340.1541316898331 320.65234375) rotate(0 62.578125 -10.28515625)"><path d="M103.85 -9.79 C110.2 -11.99, 118.73 -19.16, 125.71 -21.92 M103.85 -9.79 C112.34 -13.97, 119.76 -19.38, 125.71 -21.92" stroke="#1e1e1e" stroke-width="2" fill="none"></path></g><g transform="translate(340.1541316898331 320.65234375) rotate(0 62.578125 -10.28515625)"><path d="M101.17 -26.68 C108.52 -23.4, 117.91 -25.12, 125.71 -21.92 M101.17 -26.68 C110.53 -24.42, 118.97 -23.42, 125.71 -21.92" stroke="#1e1e1e" stroke-width="2" fill="none"></path></g></g><mask></mask><g stroke-linecap="round"><g transform="translate(312.3733051241355 186.45328650832693) rotate(0 71.04666328284878 -33.83015887916346)"><path d="M-0.45 0.83 C23.3 -10.61, 118.14 -56.86, 141.89 -68.2 M1.51 0.22 C25.14 -11.1, 117.55 -55.36, 140.83 -66.95" stroke="#1e1e1e" stroke-width="2" fill="none"></path></g><g transform="translate(312.3733051241355 186.45328650832693) rotate(0 71.04666328284878 -33.83015887916346)"><path d="M123.45 -48.98 C129.09 -53.71, 131.12 -57.94, 140.83 -66.95 M123.45 -48.98 C129.64 -56.08, 136.18 -60.49, 140.83 -66.95" stroke="#1e1e1e" stroke-width="2" fill="none"></path></g><g transform="translate(312.3733051241355 186.45328650832693) rotate(0 71.04666328284878 -33.83015887916346)"><path d="M115.97 -64.35 C123.51 -65.24, 127.4 -65.65, 140.83 -66.95 M115.97 -64.35 C124.57 -66.32, 133.64 -65.54, 140.83 -66.95" stroke="#1e1e1e" stroke-width="2" fill="none"></path></g></g><mask></mask><g stroke-linecap="round" transform="translate(465.2068660648331 87.708984375) rotate(0 113.064453125 28.138671875)"><path d="M14.07 0 C78.73 1.18, 147.12 -0.27, 212.06 0 M14.07 0 C70.01 -1.34, 125.25 -1.55, 212.06 0 M212.06 0 C223.21 -1.24, 226.54 4.91, 226.13 14.07 M212.06 0 C220.19 -1.87, 228.31 3.33, 226.13 14.07 M226.13 14.07 C224.22 20.18, 226.18 29.54, 226.13 42.21 M226.13 14.07 C226.44 22.17, 225.83 30.63, 226.13 42.21 M226.13 42.21 C226.66 51.87, 221.03 58.07, 212.06 56.28 M226.13 42.21 C224.12 51.34, 220.76 54.69, 212.06 56.28 M212.06 56.28 C173.83 52.88, 133.63 54.4, 14.07 56.28 M212.06 56.28 C162.87 56.16, 113.21 56.08, 14.07 56.28 M14.07 56.28 C5.43 56.16, 1.86 49.94, 0 42.21 M14.07 56.28 C4.31 56.4, 0.19 52.05, 0 42.21 M0 42.21 C-1.59 30.71, 2.13 19.11, 0 14.07 M0 42.21 C-0.25 30.79, 0.15 20.79, 0 14.07 M0 14.07 C0.74 3.89, 3.79 0.78, 14.07 0 M0 14.07 C-0.56 4.12, 6.88 -0.3, 14.07 0" stroke="#1e1e1e" stroke-width="2" fill="none"></path></g><g transform="translate(517.8813808353409 103.34765625) rotate(0 60.38993835449219 12.5)"><text x="60.38993835449219" y="17.52" font-family="Virgil, Segoe UI Emoji" font-size="20px" fill="#1e1e1e" text-anchor="middle" style="white-space: pre;" direction="ltr" dominant-baseline="alphabetic">span#before</text></g><g stroke-linecap="round" transform="translate(469.5232723148331 265.412109375) rotate(0 113.064453125 28.138671875)"><path d="M14.07 0 C76.37 -1.3, 134.09 -2.12, 212.06 0 M14.07 0 C70.41 0.6, 125.35 0.57, 212.06 0 M212.06 0 C220.92 0.12, 227.95 5.43, 226.13 14.07 M212.06 0 C220.52 -1.03, 227.03 4.13, 226.13 14.07 M226.13 14.07 C227.57 20.8, 226.87 29.15, 226.13 42.21 M226.13 14.07 C225.11 21.43, 225.2 27.09, 226.13 42.21 M226.13 42.21 C227.56 52.31, 220.11 55.58, 212.06 56.28 M226.13 42.21 C225.01 53.81, 223.53 57.65, 212.06 56.28 M212.06 56.28 C145.2 58.9, 80.73 56.61, 14.07 56.28 M212.06 56.28 C163.22 54.72, 115.86 55, 14.07 56.28 M14.07 56.28 C3.46 54.97, 1.83 50.66, 0 42.21 M14.07 56.28 C3.4 57.59, 1.85 49.98, 0 42.21 M0 42.21 C-1.57 33.14, 0.02 23.28, 0 14.07 M0 42.21 C0.39 33.99, 0.83 24.39, 0 14.07 M0 14.07 C-1.11 3.15, 4.56 0, 14.07 0 M0 14.07 C-1.63 3.72, 3.84 1.79, 14.07 0" stroke="#1e1e1e" stroke-width="2" fill="none"></path></g><g transform="translate(525.9677760990128 281.05078125) rotate(0 56.61994934082031 12.5)"><text x="56.61994934082031" y="17.52" font-family="Virgil, Segoe UI Emoji" font-size="20px" fill="#1e1e1e" text-anchor="middle" style="white-space: pre;" direction="ltr" dominant-baseline="alphabetic">span#after</text></g></svg>